HIERARCHY
ROOT Hips
{
	OFFSET -14.64140 90.27770 -84.91600
	CHANNELS 6 Xposition Yposition Zposition Zrotation Xrotation Yrotation
	JOINT Spine
	{
		OFFSET 0.00000 13.20850 -1.60436
		CHANNELS 3 Zrotation Xrotation Yrotation
		JOINT Spine1
		{
			OFFSET 0.00000 8.61716 0.00000
			CHANNELS 3 Zrotation Xrotation Yrotation
			JOINT Spine2
			{
				OFFSET 0.00000 8.61717 0.00000
				CHANNELS 3 Zrotation Xrotation Yrotation
				JOINT Spine3
				{
					OFFSET 0.00000 8.61717 0.00000
					CHANNELS 3 Zrotation Xrotation Yrotation
					JOINT Neck
					{
						OFFSET 0.00000 11.07920 1.10792
						CHANNELS 3 Zrotation Xrotation Yrotation
						JOINT Neck1
						{
							OFFSET 0.00000 7.08032 0.00000
							CHANNELS 3 Zrotation Xrotation Yrotation
							JOINT Head
							{
								OFFSET 0.00000 7.08031 0.00000
								CHANNELS 3 Zrotation Xrotation Yrotation
								End site
								{
									OFFSET 0.00000 0.00000 0.00000
								}
							}
						}
					}
					JOINT RightShoulder
					{
						OFFSET -0.01000 7.91373 5.19711
						CHANNELS 3 Zrotation Xrotation Yrotation
						JOINT RightArm
						{
							OFFSET -18.41580 0.00000 0.00000
							CHANNELS 3 Zrotation Xrotation Yrotation
							JOINT RightForeArm
							{
								OFFSET -29.11090 0.00000 0.00000
								CHANNELS 3 Zrotation Xrotation Yrotation
								JOINT RightHand
								{
									OFFSET -24.65040 0.00000 0.00000
									CHANNELS 3 Zrotation Xrotation Yrotation
									JOINT RightHandThumb1
									{
										OFFSET -5.35114 -0.85590 3.97906
										CHANNELS 3 Zrotation Xrotation Yrotation
										JOINT RightHandThumb2
										{
											OFFSET -4.52789 0.00000 0.00000
											CHANNELS 3 Zrotation Xrotation Yrotation
											JOINT RightHandThumb3
											{
												OFFSET -2.46976 0.00000 0.00000
												CHANNELS 3 Zrotation Xrotation Yrotation
												End site
												{
													OFFSET 0.00000 0.00000 0.00000
												}
											}
										}
									}
									JOINT RightHandIndex1
									{
										OFFSET -14.26970 0.00000 2.88139
										CHANNELS 3 Zrotation Xrotation Yrotation
										JOINT RightHandIndex2
										{
											OFFSET -5.48836 0.00000 0.00000
											CHANNELS 3 Zrotation Xrotation Yrotation
											JOINT RightHandIndex3
											{
												OFFSET -3.01859 0.00000 0.00000
												CHANNELS 3 Zrotation Xrotation Yrotation
												End site
												{
													OFFSET 0.00000 0.00000 0.00000
												}
											}
										}
									}
									JOINT RightHandMiddle1
									{
										OFFSET -14.26970 0.00000 -0.09147
										CHANNELS 3 Zrotation Xrotation Yrotation
										JOINT RightHandMiddle2
										{
											OFFSET -6.17441 0.00000 0.00000
											CHANNELS 3 Zrotation Xrotation Yrotation
											JOINT RightHandMiddle3
											{
												OFFSET -3.56743 0.00000 0.00000
												CHANNELS 3 Zrotation Xrotation Yrotation
												End site
												{
													OFFSET 0.00000 0.00000 0.00000
												}
											}
										}
									}
									JOINT RightHandRing1
									{
										OFFSET -12.69180 0.00000 -3.06433
										CHANNELS 3 Zrotation Xrotation Yrotation
										JOINT RightHandRing2
										{
											OFFSET -5.62556 0.00000 0.00000
											CHANNELS 3 Zrotation Xrotation Yrotation
											JOINT RightHandRing3
											{
												OFFSET -3.56744 0.00000 0.00000
												CHANNELS 3 Zrotation Xrotation Yrotation
												End site
												{
													OFFSET 0.00000 0.00000 0.00000
												}
											}
										}
									}
									JOINT RightHandPinky1
									{
										OFFSET -11.11390 0.00000 -6.03719
										CHANNELS 3 Zrotation Xrotation Yrotation
										JOINT RightHandPinky2
										{
											OFFSET -4.52789 0.00000 0.00000
											CHANNELS 3 Zrotation Xrotation Yrotation
											JOINT RightHandPinky3
											{
												OFFSET -2.46976 0.00000 0.00000
												CHANNELS 3 Zrotation Xrotation Yrotation
												End site
												{
													OFFSET 0.00000 0.00000 0.00000
												}
											}
										}
									}
								}
							}
						}
					}
					JOINT LeftShoulder
					{
						OFFSET 0.01000 7.91373 5.19711
						CHANNELS 3 Zrotation Xrotation Yrotation
						JOINT LeftArm
						{
							OFFSET 18.41580 0.00000 0.00000
							CHANNELS 3 Zrotation Xrotation Yrotation
							JOINT LeftForeArm
							{
								OFFSET 29.11090 0.00000 0.00000
								CHANNELS 3 Zrotation Xrotation Yrotation
								JOINT LeftHand
								{
									OFFSET 24.65040 0.00000 0.00000
									CHANNELS 3 Zrotation Xrotation Yrotation
									JOINT LeftHandThumb1
									{
										OFFSET 5.35114 -0.85590 3.97906
										CHANNELS 3 Zrotation Xrotation Yrotation
										JOINT LeftHandThumb2
										{
											OFFSET 4.52789 0.00000 0.00000
											CHANNELS 3 Zrotation Xrotation Yrotation
											JOINT LeftHandThumb3
											{
												OFFSET 2.46977 0.00000 0.00000
												CHANNELS 3 Zrotation Xrotation Yrotation
												End site
												{
													OFFSET 0.00000 0.00000 0.00000
												}
											}
										}
									}
									JOINT LeftHandIndex1
									{
										OFFSET 14.26970 0.00000 2.88139
										CHANNELS 3 Zrotation Xrotation Yrotation
										JOINT LeftHandIndex2
										{
											OFFSET 5.48836 0.00000 0.00000
											CHANNELS 3 Zrotation Xrotation Yrotation
											JOINT LeftHandIndex3
											{
												OFFSET 3.01859 0.00000 0.00000
												CHANNELS 3 Zrotation Xrotation Yrotation
												End site
												{
													OFFSET 0.00000 0.00000 0.00000
												}
											}
										}
									}
									JOINT LeftHandMiddle1
									{
										OFFSET 14.26970 0.00000 -0.09147
										CHANNELS 3 Zrotation Xrotation Yrotation
										JOINT LeftHandMiddle2
										{
											OFFSET 6.17440 0.00000 0.00000
											CHANNELS 3 Zrotation Xrotation Yrotation
											JOINT LeftHandMiddle3
											{
												OFFSET 3.56744 0.00000 0.00000
												CHANNELS 3 Zrotation Xrotation Yrotation
												End site
												{
													OFFSET 0.00000 0.00000 0.00000
												}
											}
										}
									}
									JOINT LeftHandRing1
									{
										OFFSET 12.69180 0.00000 -3.06433
										CHANNELS 3 Zrotation Xrotation Yrotation
										JOINT LeftHandRing2
										{
											OFFSET 5.62556 0.00000 0.00000
											CHANNELS 3 Zrotation Xrotation Yrotation
											JOINT LeftHandRing3
											{
												OFFSET 3.56744 0.00000 0.00000
												CHANNELS 3 Zrotation Xrotation Yrotation
												End site
												{
													OFFSET 0.00000 0.00000 0.00000
												}
											}
										}
									}
									JOINT LeftHandPinky1
									{
										OFFSET 11.11390 0.00000 -6.03719
										CHANNELS 3 Zrotation Xrotation Yrotation
										JOINT LeftHandPinky2
										{
											OFFSET 4.52789 0.00000 0.00000
											CHANNELS 3 Zrotation Xrotation Yrotation
											JOINT LeftHandPinky3
											{
												OFFSET 2.46976 0.00000 0.00000
												CHANNELS 3 Zrotation Xrotation Yrotation
												End site
												{
													OFFSET 0.00000 0.00000 0.00000
												}
											}
										}
									}
								}
							}
						}
					}
					JOINT pCube4
					{
						OFFSET 0.00000 10.91090 1.10792
						CHANNELS 3 Zrotation Xrotation Yrotation
						End site
						{
							OFFSET 0.00000 0.00000 0.00000
						}
					}
				}
			}
		}
	}
	JOINT RightUpLeg
	{
		OFFSET -9.98441 0.00000 0.00000
		CHANNELS 3 Zrotation Xrotation Yrotation
		JOINT RightLeg
		{
			OFFSET 0.00000 -42.11790 0.00000
			CHANNELS 3 Zrotation Xrotation Yrotation
			JOINT RightFoot
			{
				OFFSET 0.00000 -45.00020 -0.00001
				CHANNELS 3 Zrotation Xrotation Yrotation
				JOINT RightForeFoot
				{
					OFFSET 0.00000 -3.74820 0.00000
					CHANNELS 3 Zrotation Xrotation Yrotation
					JOINT RightToeBase
					{
						OFFSET 0.00000 0.06325 14.43120
						CHANNELS 3 Zrotation Xrotation Yrotation
						End site
						{
							OFFSET 0.00000 0.00000 0.00000
						}
					}
				}
			}
		}
	}
	JOINT LeftUpLeg
	{
		OFFSET 9.98441 0.00000 0.00000
		CHANNELS 3 Zrotation Xrotation Yrotation
		JOINT LeftLeg
		{
			OFFSET 0.00000 -42.11800 0.00000
			CHANNELS 3 Zrotation Xrotation Yrotation
			JOINT LeftFoot
			{
				OFFSET 0.00000 -45.00070 0.00000
				CHANNELS 3 Zrotation Xrotation Yrotation
				JOINT LeftForeFoot
				{
					OFFSET 0.00000 -3.74824 0.00000
					CHANNELS 3 Zrotation Xrotation Yrotation
					JOINT LeftToeBase
					{
						OFFSET 0.00000 0.06325 14.43110
						CHANNELS 3 Zrotation Xrotation Yrotation
						End site
						{
							OFFSET 0.00000 0.00000 0.00000
						}
					}
				}
			}
		}
	}
}
MOTION
Frames: 4
Frame Time: 0.050000
0.022248386222692464 -0.021828379755461865 -0.044572382897714896 0.035088093583392314 0.04272365061808783 -0.031061841622635755 2.0524866311313565 1.2213430996019556 -1.8049803831126514 -0.8846298170137581 3.57470759054111 0.3832465242794712 -1.1350001496049817 -1.5233482180030737 0.2362713406841537 0.4569366906178586 -0.0974726650652247 -0.544568542918894 1.8069738229804562 13.688013136940704 -5.164331324491352 0.3916092411575893 0.4771960983883636 -12.47382461025022 2.025740491666306 -14.957377390725712 -1.0639033008938594 -11.896816774520545 3.7352585934710256 -17.256403310002565 72.2753612332226 -14.977066340018448 22.87059395483086 15.04451372422672 2.1401345634262987 94.21616028576871 2.36661072781059 -0.03671890706945533 -0.22295585171573812 4.505741920565105 -0.14465501515567097 -1.63546192944159 -0.03767663438347047 0.04395450437219662 -56.28211180263269 0.03818170832887057 0.03326617045342741 -56.231327277949845 -38.7499986759202 0.025078900209544095 0.017151571434233633 -0.03549269823352898 0.03596024686562969 0.013201435280157332 -0.02545713020445599 0.04231971923858008 -0.01596082258410146 -36.668910474259064 -0.0011673438565074552 -0.04306064548777986 -0.04201107783171007 0.018580830061090244 -0.03272804775834653 -0.01977539362797517 0.00585872823640297 -0.017180810944205382 -19.78060505811073 0.005997084786029544 0.02374421429638588 0.027895156351343525 -0.035854418663668765 0.03895555792001651 0.026443403626922074 -0.027393137457492084 0.008736545911328131 24.076767897974168 -0.01092259709649647 0.02847560289964909 28.89017039885629 0.04793413793169045 0.005318126717469158 28.894528151345778 -0.012187678127689755 -0.03465982327917721 7.615007154050668 1.8607978592592769 13.369905687995102 -71.27219750249975 21.953237722192874 -11.47348053758256 -16.454418450049783 3.048476869458568 -66.01615730806108 -11.961968131596599 -1.8581423641926116 0.6214627219560863 -0.5044325446157448 0.0794396557790942 -8.078408271313394 0.04645169165197661 -0.046742232939188326 44.53876819889135 0.010939214523361917 0.011754637881022191 44.5438152167675 12.473939594886623 -0.005136573652382803 -0.01977290822572026 -0.004418928363863265 -0.024243519927967135 0.027259072353688234 -0.044928780085756057 -0.0423676400687244 0.012459901559080555 11.082316670359555 0.015376793058588743 0.03916240504585724 -0.04420379087659192 -0.04539882697616526 0.026652423328311546 -0.016336662637752155 0.04798205242841078 -0.025848188016555043 4.752877657301856 -0.008397276024576785 -0.0026831119518609574 -0.002665074147937139 -0.048563018837715764 0.025446604054858706 0.0009134645118564476 -0.03834780343848628 -0.04631134201785631 -5.591270031937918 0.03650266243910627 -0.02300370507336757 -6.692715097849426 -0.015656712523258186 -0.04301293145903384 -6.735772469978605 0.0059886987729361645 -0.020537028304430983 0.021599121096311968 -0.0318557768989546 0.0033173986041192542 8.053045140825333 3.5244417075979424 -19.184750510491178 -0.04080799055888076 10.393352917096188 -0.026722964458565254 -5.610535039526021 -15.617560365185733 3.1623170417343935 -0.00623372436052381 0.004726520802447283 -0.031689168924677734 0.004807956630925252 4.689560877925418 0.01169465798615695 12.469132427584173 -8.22870024432687 6.914058787640221 -0.016551424941236088 46.34542393059191 0.044477284933227355 -4.319591404588759 -14.75689581387905 -3.790065057472182 -0.02284485503116875 -0.031099780048779987 2.0738223808636632e-05 0.002699652549444618 -10.732144281782665 -0.030294887375209203 
-0.013845315102475626 -0.010605243659451286 0.04583560124253679 -0.02582739783142925 -0.028586737006416743 -0.009872825273559966 2.3661249898362953 1.188032106963837 -1.8643868075231278 -0.8955681513166193 3.5479895021233268 0.4123980690577351 -1.1418396515785414 -1.553341857117231 0.48710713110052956 0.42848760071354886 -0.12650122682109868 -0.43768194220009377 1.9001348791565 13.791121990960072 -5.300780369083238 0.39504615095580353 0.5652396954702814 -12.869432063215214 2.1192309997647643 -14.913645206395822 -1.062079488506673 -12.28613668564325 3.7853664569933017 -17.462577953234668 71.77565078531232 -14.840202485190408 23.728608284871612 12.523846758440333 1.8454643578568175 92.96294576131586 2.3969728480213846 -0.10469296971569625 -0.2601273750623861 4.523059045517585 -0.15059967327495188 -1.575244610657914 0.013794306085664556 -0.00975591286890175 -56.21513509240842 0.046140674496832026 -0.014755246421312752 -56.224744675928456 -38.801694501272024 -0.02236924257400349 0.001580514302399435 0.00032419028677187553 0.03256046226061372 -0.008138892836498761 0.010047971108930605 0.007569694264678535 -0.01551477126410105 -36.70607914985014 -0.03412019377310476 0.03971251786586331 0.048893955715723934 0.04298549603815428 0.037707170509980396 -0.04138070511960583 0.01568025756006776 -0.04098613556278006 -19.787537703169715 -0.010217877024940163 0.02848405877552526 -0.02360418470224005 0.02396510373002974 0.021929482918340844 -0.029782226986401185 -0.009071140369546654 -0.03527605455751143 24.072126045798154 -0.0421840224904069 0.03420830268141321 28.821001402743686 0.0424939324242198 0.006825850580278084 28.852516640365575 0.016096101267199375 -0.017958985554959023 7.579087238104018 1.8962960212782016 13.559437352645714 -71.29654426266498 21.950711382837913 -10.545959804846195 -9.271748056822577 0.06061136890494985 -59.553725745731185 -12.34915449715644 -1.39592879243416 0.7370993154193518 -0.4643412495997828 0.05808782391988812 -8.111850931666812 0.019603643479164403 -0.018378439175371488 44.53364942986081 -0.03930245244948369 0.008962007136245448 44.56629512922752 12.469479289149762 0.03938828865142189 0.008458742708866106 0.0002616464465294991 -0.03332787750264832 0.01914358725508943 0.023072330310418502 -0.01840053762788886 0.026754675073078136 11.077517357059472 0.02693307620136127 0.048376709572079374 -0.015328250773131834 0.02505254143322309 -0.040513463779482686 0.0027443489455104353 -0.04231499111258041 -0.04124788056440229 4.8027200323877075 -0.021454815727865676 -0.03472927416072897 -0.0031262914506905892 0.03658280398500249 -0.004632245243947856 0.03401271117406573 0.024995513643383076 -0.015507712964062796 -5.592687995044378 -0.026829381393083034 -0.005098925888039564 -6.68963408577737 -0.02880049693118931 0.010500321419519608 -6.685441606751437 -0.03447879660652294 0.021529154797517932 -0.03018629191697842 0.026715266040516734 -0.025375785605111462 8.072290167054605 3.4815847118686127 -19.1754890169711 0.037492255592341574 10.389644043105198 0.02876829496659428 -5.655661829221382 -15.668930032520242 3.156958589995365 0.005195333978452401 -0.04812736630626291 -0.03298666790697103 -0.010609850896847392 4.684147400797149 -0.03187044271148509 12.480746605359693 -8.205819625094612 6.917498789177846 0.009936966104978994 46.421260255880185 -0.03328117654142788 -4.334326678117584 -14.747092197574876 -3.8812277629765264 0.042573764811146775 0.01590902953913994 -0.011700191147136383 0.010663308377294994 -10.706951792835744 0.030764613954627915 
0.02204831726217212 -0.03192854498297617 -0.011671803011845646 0.0023089285140517626 -0.02070798668602287 -0.011811782947711534 2.769391792152864 1.2675417832802511 -1.979215120407963 -0.9180870776955168 3.57755057483539 0.41576680082707457 -1.1127668457609095 -1.455537560688391 0.8353600308738369 0.40797170845465247 -0.18706846026752935 -0.42212499132842846 1.9965169878446847 13.840954839239538 -5.443501406383318 0.32153800544886035 0.5704658242206829 -13.314587721879839 2.1643283609412842 -14.989956454057175 -1.09126416265132 -12.688249952216141 3.9754096488451696 -17.68668261126832 71.47510973247667 -14.921350755550954 24.412921428706703 10.106505306238667 1.4827817527098515 91.78323682683217 2.147355735751022 -0.08316751638650703 -0.16044210247529955 4.480681407073712 -0.1626559757625918 -1.6186155389298982 0.021450561692843883 0.03566027872538234 -56.21490838051321 0.005223393318197147 -0.046845175143923355 -56.21370513650289 -38.80445194233094 -0.0035229618273953833 0.04292247734204767 -0.043711356099116194 0.01974670778967606 0.008137413222225574 -0.0025194244098768197 -0.0378569195337655 -0.04463074104383938 -36.71776094111191 -0.0069323546952179725 -0.009033767008252931 0.0062052691857846795 0.02228602892942759 0.012883937502066383 0.03854106856714524 0.03366732687391951 -0.02017640206888774 -19.788985454137716 -0.0004316913733940481 0.039368091290065 -0.0037938452543234986 0.013062437151912923 0.000891963429067965 -0.015071652484046657 -0.02161043976569628 0.010274643612487528 24.081540003261942 0.012234272116850048 0.004906004980487894 28.851858588175844 0.045205896873597586 0.008752239077416549 28.819781168681814 -0.010419517211634002 0.04822357450092807 7.517691625236571 1.840962361200932 13.762356756082138 -71.65612941967034 21.573831264362823 -9.543927057402135 -3.3369056228757263 -2.877663891222022 -53.705384066084584 -12.878233984326815 -1.0040122159381457 0.7437108600610234 -0.48045791030946344 0.06412078920735086 -8.156324103553018 -0.033456481762216994 -0.049021686607451584 44.53734137703264 -0.025191606964992348 -0.04034384304143781 44.56750949814707 12.44068533857982 0.007419144196021362 -0.0039258324207511975 0.01354229832542736 -0.01954273751745607 0.0014415292216289513 -0.03507032507654543 -0.008311412086439113 -0.03582852811906047 11.117779624386895 0.010546691456407067 -0.030931069684614097 0.014759648859437277 -0.008649195804454949 -0.04603619785682161 -0.028928284730589587 0.0020895874707083 0.00820631087717041 4.7252045684146395 0.01523060903586404 -0.005354948326063218 -0.039254935662570864 -0.04686005189457052 -0.011042173959108394 0.02084979206144663 0.008016707887367011 0.01180140053090544 -5.637406295150141 -0.01715813380576126 -0.027283336691695782 -6.7574248860396215 0.010870127546303378 0.019187631197898788 -6.714350870168425 -0.01825925345015378 0.015198968081056979 -0.019733235359430744 0.015816260641078498 0.01713045752363055 8.078124686594697 3.4665060551229447 -19.20919217454293 0.02795934825258966 10.360874655960346 -0.0344301498159692 -5.620510490305415 -15.671981732516947 3.2122711624119424 -0.04305639624969664 0.03600854886393074 0.003335843031120689 0.038303815761658457 4.7126253048969895 -0.015481841799623775 12.419333036665572 -8.21862272986043 6.910214599853329 -0.0019133435908733664 46.391651055298965 0.0016323378343539889 -4.286872395343745 -14.742745333831342 -3.8429043059044536 -0.03509627901702288 -0.0010727599388895281 -0.0223405846036804 -0.005024335157273199 -10.719668241854501 0.021161310425264788 
-0.0013425541152493007 0.0446580572432713 0.030527833273753364 -0.037952997742919964 0.007761230207480896 0.03487742245591451 3.3364276363405794 1.391691404074563 -2.0693701130438473 -0.9264525713099886 3.5906186515674423 0.4120929957858059 -1.1221657837471046 -1.4469849697594486 1.129756013574814 0.36005720093982757 -0.2684161604531704 -0.29552605091343637 1.9893718053049378 13.732309504036767 -5.649556462503343 0.3204321969093918 0.5124301543722974 -13.703973819817143 2.2099752974433917 -15.171883046883371 -1.1575015802002255 -13.096893485339276 4.091530014500264 -17.880702514888387 71.7472689085085 -16.031823143758636 25.114425052197536 8.91959465341912 1.1878887870160586 90.92031521098043 1.8598461506767894 -0.05511767709634687 -0.11291048041454876 4.493428573995148 -0.13058591133712957 -1.5806178405110036 0.04560843239541143 -0.030002651059119912 -56.243298278120015 -0.013165133166736188 -0.019413110268568005 -56.2238624820856 -38.800304137340746 -0.014583665069512596 -0.000763325240411006 -0.04486778631041535 0.0030723917983026634 -0.04759167583098905 0.019731296704243274 0.0003372815342548615 -0.023174774651400845 -36.65025855782403 0.0013316428826664574 0.0017449923691836722 -0.0232479428255852 -0.014779365780196946 -0.03659415158951979 0.00824992201360668 0.04718766796177485 -0.029238532759328122 -19.782599540833647 -0.04365208799432834 -0.024901592041928673 -0.038916294905872076 0.01783859851190618 -0.007492816393130095 0.005142606669056675 0.033508712804081395 0.003910225927863187 24.097372323599696 0.032554044639067324 -0.04079611681122371 28.839816691089965 0.018454310617041607 0.006772276719012887 28.870634797610997 0.025345352355941004 0.028646674545930614 7.650927829075016 1.8854566008983071 13.986500417416915 -72.02930043211158 20.731059879873676 -8.989080987859445 -0.9402026596248556 -3.730554085144182 -49.970878834178684 -13.619507636176456 -0.8301112009730375 0.8141225416266289 -0.5090532478061093 0.03849982339323167 -8.140227654010584 -0.019946501938230755 -0.03595725289355607 44.55593266112629 0.0047713362285202125 0.01315702941008843 44.53556531208233 12.417387609302084 -0.006483346627602788 0.02719000040669346 -0.015575507852962718 -0.006502456187239429 -0.03430923184562991 0.029264571982959977 0.0042321453704600425 0.02411762746328886 11.132278627363055 -0.016490607220333797 0.006656019996258028 0.029944657104213818 0.04162165763239491 0.0051226008322857956 0.0009150312040014848 0.024309932662996005 -0.0279288665924201 4.750750296760136 -0.03997523239685526 0.029720926815803995 0.028902494068683855 0.039110800335036715 0.019555532525707936 0.03378256039417089 -0.0022824469052440764 -0.03789386653534889 -5.617608243098662 0.02678550824917396 0.022827335694364764 -6.769837187228883 -0.03136603101217342 0.03049081436061318 -6.7381640684931385 -0.005053685309172358 -0.02694248430837453 0.029044094772677317 0.02735255980393297 -0.0020211092248788704 8.061554624763533 3.474995898131405 -19.24415352591731 -0.008783886800810433 10.381262690070432 0.017944191641321702 -5.65941780522193 -15.688882326307366 3.1859933216822327 -0.012996367837051681 -0.034973836922454614 0.030593969484297007 0.01969955435427859 4.687477122065207 -0.01559847859889725 12.481600266469037 -8.236895615715197 6.878266307154153 0.007283606139353034 46.34227047711738 0.0013046655509692954 -4.333543078669569 -14.794340476097942 -3.8461364507938653 -0.011729274225543011 0.019680430821787942 -0.0166652274544864 0.03497952567862755 -10.72389118883403 -0.036156617798267 
